<mxfile host="app.diagrams.net" agent="Mozilla/5.0 (Windows NT 10.0; Win64; x64; rv:136.0) Gecko/20100101 Firefox/136.0" version="26.1.1">
  <diagram name="Page-1" id="utcMl-w8gK_bHILp6fAt">
    <mxGraphModel dx="2359" dy="1915" grid="1" gridSize="10" guides="1" tooltips="1" connect="1" arrows="1" fold="1" page="1" pageScale="1" pageWidth="850" pageHeight="1100" math="0" shadow="0">
      <root>
        <mxCell id="0" />
        <mxCell id="1" parent="0" />
        <mxCell id="7rwOD0vgzpQyucM3z7IF-4" value="MainApp" style="swimlane;fontStyle=1;align=center;verticalAlign=top;childLayout=stackLayout;horizontal=1;startSize=26;horizontalStack=0;resizeParent=1;resizeParentMax=0;resizeLast=0;collapsible=1;marginBottom=0;whiteSpace=wrap;html=1;" vertex="1" parent="1">
          <mxGeometry x="510" y="20" width="210" height="140" as="geometry" />
        </mxCell>
        <mxCell id="7rwOD0vgzpQyucM3z7IF-5" value="&lt;div&gt;+ taskManagement: TasksManagement&lt;/div&gt;&lt;div&gt;+ root: BorderPane&lt;/div&gt;" style="text;strokeColor=none;fillColor=none;align=left;verticalAlign=top;spacingLeft=4;spacingRight=4;overflow=hidden;rotatable=0;points=[[0,0.5],[1,0.5]];portConstraint=eastwest;whiteSpace=wrap;html=1;" vertex="1" parent="7rwOD0vgzpQyucM3z7IF-4">
          <mxGeometry y="26" width="210" height="54" as="geometry" />
        </mxCell>
        <mxCell id="7rwOD0vgzpQyucM3z7IF-6" value="" style="line;strokeWidth=1;fillColor=none;align=left;verticalAlign=middle;spacingTop=-1;spacingLeft=3;spacingRight=3;rotatable=0;labelPosition=right;points=[];portConstraint=eastwest;strokeColor=inherit;" vertex="1" parent="7rwOD0vgzpQyucM3z7IF-4">
          <mxGeometry y="80" width="210" height="8" as="geometry" />
        </mxCell>
        <mxCell id="7rwOD0vgzpQyucM3z7IF-7" value="+ start(primaryStage: Stage): void&lt;br&gt;&amp;nbsp; + stop(): void&lt;br&gt;&amp;nbsp; + main(args: String[]): void" style="text;strokeColor=none;fillColor=none;align=left;verticalAlign=top;spacingLeft=4;spacingRight=4;overflow=hidden;rotatable=0;points=[[0,0.5],[1,0.5]];portConstraint=eastwest;whiteSpace=wrap;html=1;" vertex="1" parent="7rwOD0vgzpQyucM3z7IF-4">
          <mxGeometry y="88" width="210" height="52" as="geometry" />
        </mxCell>
        <mxCell id="7rwOD0vgzpQyucM3z7IF-8" value="AddEmployeeView " style="swimlane;fontStyle=1;align=center;verticalAlign=top;childLayout=stackLayout;horizontal=1;startSize=26;horizontalStack=0;resizeParent=1;resizeParentMax=0;resizeLast=0;collapsible=1;marginBottom=0;whiteSpace=wrap;html=1;" vertex="1" parent="1">
          <mxGeometry x="20" y="210" width="230" height="78" as="geometry" />
        </mxCell>
        <mxCell id="7rwOD0vgzpQyucM3z7IF-9" value="+ AddEmployeeView(tasksManagement: TasksManagement)" style="text;strokeColor=none;fillColor=none;align=left;verticalAlign=top;spacingLeft=4;spacingRight=4;overflow=hidden;rotatable=0;points=[[0,0.5],[1,0.5]];portConstraint=eastwest;whiteSpace=wrap;html=1;" vertex="1" parent="7rwOD0vgzpQyucM3z7IF-8">
          <mxGeometry y="26" width="230" height="44" as="geometry" />
        </mxCell>
        <mxCell id="7rwOD0vgzpQyucM3z7IF-10" value="" style="line;strokeWidth=1;fillColor=none;align=left;verticalAlign=middle;spacingTop=-1;spacingLeft=3;spacingRight=3;rotatable=0;labelPosition=right;points=[];portConstraint=eastwest;strokeColor=inherit;" vertex="1" parent="7rwOD0vgzpQyucM3z7IF-8">
          <mxGeometry y="70" width="230" height="8" as="geometry" />
        </mxCell>
        <mxCell id="7rwOD0vgzpQyucM3z7IF-14" value="AddTaskView " style="swimlane;fontStyle=1;align=center;verticalAlign=top;childLayout=stackLayout;horizontal=1;startSize=26;horizontalStack=0;resizeParent=1;resizeParentMax=0;resizeLast=0;collapsible=1;marginBottom=0;whiteSpace=wrap;html=1;" vertex="1" parent="1">
          <mxGeometry x="270" y="210" width="230" height="78" as="geometry" />
        </mxCell>
        <mxCell id="7rwOD0vgzpQyucM3z7IF-15" value="+ AddTaskView(tasksManagement: TasksManagement)" style="text;strokeColor=none;fillColor=none;align=left;verticalAlign=top;spacingLeft=4;spacingRight=4;overflow=hidden;rotatable=0;points=[[0,0.5],[1,0.5]];portConstraint=eastwest;whiteSpace=wrap;html=1;" vertex="1" parent="7rwOD0vgzpQyucM3z7IF-14">
          <mxGeometry y="26" width="230" height="44" as="geometry" />
        </mxCell>
        <mxCell id="7rwOD0vgzpQyucM3z7IF-16" value="" style="line;strokeWidth=1;fillColor=none;align=left;verticalAlign=middle;spacingTop=-1;spacingLeft=3;spacingRight=3;rotatable=0;labelPosition=right;points=[];portConstraint=eastwest;strokeColor=inherit;" vertex="1" parent="7rwOD0vgzpQyucM3z7IF-14">
          <mxGeometry y="70" width="230" height="8" as="geometry" />
        </mxCell>
        <mxCell id="7rwOD0vgzpQyucM3z7IF-17" value="AssignTaskView " style="swimlane;fontStyle=1;align=center;verticalAlign=top;childLayout=stackLayout;horizontal=1;startSize=26;horizontalStack=0;resizeParent=1;resizeParentMax=0;resizeLast=0;collapsible=1;marginBottom=0;whiteSpace=wrap;html=1;" vertex="1" parent="1">
          <mxGeometry x="520" y="210" width="230" height="78" as="geometry" />
        </mxCell>
        <mxCell id="7rwOD0vgzpQyucM3z7IF-18" value="+&amp;nbsp;AssignTaskView (tasksManagement: TasksManagement)" style="text;strokeColor=none;fillColor=none;align=left;verticalAlign=top;spacingLeft=4;spacingRight=4;overflow=hidden;rotatable=0;points=[[0,0.5],[1,0.5]];portConstraint=eastwest;whiteSpace=wrap;html=1;" vertex="1" parent="7rwOD0vgzpQyucM3z7IF-17">
          <mxGeometry y="26" width="230" height="44" as="geometry" />
        </mxCell>
        <mxCell id="7rwOD0vgzpQyucM3z7IF-19" value="" style="line;strokeWidth=1;fillColor=none;align=left;verticalAlign=middle;spacingTop=-1;spacingLeft=3;spacingRight=3;rotatable=0;labelPosition=right;points=[];portConstraint=eastwest;strokeColor=inherit;" vertex="1" parent="7rwOD0vgzpQyucM3z7IF-17">
          <mxGeometry y="70" width="230" height="8" as="geometry" />
        </mxCell>
        <mxCell id="7rwOD0vgzpQyucM3z7IF-21" value="ViewEmployeesView " style="swimlane;fontStyle=1;align=center;verticalAlign=top;childLayout=stackLayout;horizontal=1;startSize=26;horizontalStack=0;resizeParent=1;resizeParentMax=0;resizeLast=0;collapsible=1;marginBottom=0;whiteSpace=wrap;html=1;" vertex="1" parent="1">
          <mxGeometry x="770" y="210" width="230" height="78" as="geometry" />
        </mxCell>
        <mxCell id="7rwOD0vgzpQyucM3z7IF-22" value="+&amp;nbsp;ViewEmployeesView (tasksManagement: TasksManagement)" style="text;strokeColor=none;fillColor=none;align=left;verticalAlign=top;spacingLeft=4;spacingRight=4;overflow=hidden;rotatable=0;points=[[0,0.5],[1,0.5]];portConstraint=eastwest;whiteSpace=wrap;html=1;" vertex="1" parent="7rwOD0vgzpQyucM3z7IF-21">
          <mxGeometry y="26" width="230" height="44" as="geometry" />
        </mxCell>
        <mxCell id="7rwOD0vgzpQyucM3z7IF-23" value="" style="line;strokeWidth=1;fillColor=none;align=left;verticalAlign=middle;spacingTop=-1;spacingLeft=3;spacingRight=3;rotatable=0;labelPosition=right;points=[];portConstraint=eastwest;strokeColor=inherit;" vertex="1" parent="7rwOD0vgzpQyucM3z7IF-21">
          <mxGeometry y="70" width="230" height="8" as="geometry" />
        </mxCell>
        <mxCell id="7rwOD0vgzpQyucM3z7IF-24" value="ViewStatisticsView " style="swimlane;fontStyle=1;align=center;verticalAlign=top;childLayout=stackLayout;horizontal=1;startSize=26;horizontalStack=0;resizeParent=1;resizeParentMax=0;resizeLast=0;collapsible=1;marginBottom=0;whiteSpace=wrap;html=1;" vertex="1" parent="1">
          <mxGeometry x="1020" y="210" width="230" height="78" as="geometry" />
        </mxCell>
        <mxCell id="7rwOD0vgzpQyucM3z7IF-25" value="+&amp;nbsp;ViewStatisticsView (tasksManagement: TasksManagement)" style="text;strokeColor=none;fillColor=none;align=left;verticalAlign=top;spacingLeft=4;spacingRight=4;overflow=hidden;rotatable=0;points=[[0,0.5],[1,0.5]];portConstraint=eastwest;whiteSpace=wrap;html=1;" vertex="1" parent="7rwOD0vgzpQyucM3z7IF-24">
          <mxGeometry y="26" width="230" height="44" as="geometry" />
        </mxCell>
        <mxCell id="7rwOD0vgzpQyucM3z7IF-26" value="" style="line;strokeWidth=1;fillColor=none;align=left;verticalAlign=middle;spacingTop=-1;spacingLeft=3;spacingRight=3;rotatable=0;labelPosition=right;points=[];portConstraint=eastwest;strokeColor=inherit;" vertex="1" parent="7rwOD0vgzpQyucM3z7IF-24">
          <mxGeometry y="70" width="230" height="8" as="geometry" />
        </mxCell>
        <mxCell id="7rwOD0vgzpQyucM3z7IF-27" value="ModifyTaskStatusView " style="swimlane;fontStyle=1;align=center;verticalAlign=top;childLayout=stackLayout;horizontal=1;startSize=26;horizontalStack=0;resizeParent=1;resizeParentMax=0;resizeLast=0;collapsible=1;marginBottom=0;whiteSpace=wrap;html=1;" vertex="1" parent="1">
          <mxGeometry x="1270" y="210" width="230" height="78" as="geometry" />
        </mxCell>
        <mxCell id="7rwOD0vgzpQyucM3z7IF-28" value="+&amp;nbsp;ModifyTaskStatusView (tasksManagement: TasksManagement)" style="text;strokeColor=none;fillColor=none;align=left;verticalAlign=top;spacingLeft=4;spacingRight=4;overflow=hidden;rotatable=0;points=[[0,0.5],[1,0.5]];portConstraint=eastwest;whiteSpace=wrap;html=1;" vertex="1" parent="7rwOD0vgzpQyucM3z7IF-27">
          <mxGeometry y="26" width="230" height="44" as="geometry" />
        </mxCell>
        <mxCell id="7rwOD0vgzpQyucM3z7IF-29" value="" style="line;strokeWidth=1;fillColor=none;align=left;verticalAlign=middle;spacingTop=-1;spacingLeft=3;spacingRight=3;rotatable=0;labelPosition=right;points=[];portConstraint=eastwest;strokeColor=inherit;" vertex="1" parent="7rwOD0vgzpQyucM3z7IF-27">
          <mxGeometry y="70" width="230" height="8" as="geometry" />
        </mxCell>
        <mxCell id="7rwOD0vgzpQyucM3z7IF-34" style="edgeStyle=orthogonalEdgeStyle;rounded=0;orthogonalLoop=1;jettySize=auto;html=1;exitX=0;exitY=0.5;exitDx=0;exitDy=0;entryX=0.681;entryY=0.021;entryDx=0;entryDy=0;entryPerimeter=0;" edge="1" parent="1">
          <mxGeometry relative="1" as="geometry">
            <mxPoint x="510" y="132.36" as="sourcePoint" />
            <mxPoint x="176.63" y="209.998" as="targetPoint" />
            <Array as="points">
              <mxPoint x="177" y="132" />
            </Array>
          </mxGeometry>
        </mxCell>
        <mxCell id="7rwOD0vgzpQyucM3z7IF-35" value="" style="endArrow=classic;html=1;rounded=0;entryX=0.408;entryY=0.011;entryDx=0;entryDy=0;entryPerimeter=0;exitX=0;exitY=0.808;exitDx=0;exitDy=0;exitPerimeter=0;" edge="1" parent="1" source="7rwOD0vgzpQyucM3z7IF-7" target="7rwOD0vgzpQyucM3z7IF-14">
          <mxGeometry width="50" height="50" relative="1" as="geometry">
            <mxPoint x="360" y="180" as="sourcePoint" />
            <mxPoint x="410" y="130" as="targetPoint" />
          </mxGeometry>
        </mxCell>
        <mxCell id="7rwOD0vgzpQyucM3z7IF-39" value="" style="endArrow=classic;html=1;rounded=0;entryX=0.25;entryY=0;entryDx=0;entryDy=0;exitX=0.384;exitY=0.974;exitDx=0;exitDy=0;exitPerimeter=0;" edge="1" parent="1" source="7rwOD0vgzpQyucM3z7IF-7" target="7rwOD0vgzpQyucM3z7IF-17">
          <mxGeometry width="50" height="50" relative="1" as="geometry">
            <mxPoint x="520" y="160" as="sourcePoint" />
            <mxPoint x="374" y="221" as="targetPoint" />
          </mxGeometry>
        </mxCell>
        <mxCell id="7rwOD0vgzpQyucM3z7IF-40" value="" style="endArrow=classic;html=1;rounded=0;entryX=0.25;entryY=0;entryDx=0;entryDy=0;exitX=0.733;exitY=1.026;exitDx=0;exitDy=0;exitPerimeter=0;" edge="1" parent="1" source="7rwOD0vgzpQyucM3z7IF-7" target="7rwOD0vgzpQyucM3z7IF-21">
          <mxGeometry width="50" height="50" relative="1" as="geometry">
            <mxPoint x="530" y="170" as="sourcePoint" />
            <mxPoint x="384" y="231" as="targetPoint" />
          </mxGeometry>
        </mxCell>
        <mxCell id="7rwOD0vgzpQyucM3z7IF-41" value="" style="endArrow=classic;html=1;rounded=0;entryX=0.282;entryY=0;entryDx=0;entryDy=0;entryPerimeter=0;exitX=1.002;exitY=0.658;exitDx=0;exitDy=0;exitPerimeter=0;" edge="1" parent="1" source="7rwOD0vgzpQyucM3z7IF-7" target="7rwOD0vgzpQyucM3z7IF-24">
          <mxGeometry width="50" height="50" relative="1" as="geometry">
            <mxPoint x="540" y="180" as="sourcePoint" />
            <mxPoint x="394" y="241" as="targetPoint" />
          </mxGeometry>
        </mxCell>
        <mxCell id="7rwOD0vgzpQyucM3z7IF-42" value="" style="endArrow=classic;html=1;rounded=0;entryX=0.5;entryY=0;entryDx=0;entryDy=0;exitX=1.002;exitY=0.658;exitDx=0;exitDy=0;exitPerimeter=0;" edge="1" parent="1" target="7rwOD0vgzpQyucM3z7IF-27">
          <mxGeometry width="50" height="50" relative="1" as="geometry">
            <mxPoint x="720" y="120" as="sourcePoint" />
            <mxPoint x="1085" y="188" as="targetPoint" />
          </mxGeometry>
        </mxCell>
        <mxCell id="7rwOD0vgzpQyucM3z7IF-43" value="creates" style="text;html=1;align=center;verticalAlign=middle;whiteSpace=wrap;rounded=0;" vertex="1" parent="1">
          <mxGeometry x="300" y="110" width="60" height="30" as="geometry" />
        </mxCell>
        <mxCell id="7rwOD0vgzpQyucM3z7IF-44" value="creates" style="text;html=1;align=center;verticalAlign=middle;whiteSpace=wrap;rounded=0;" vertex="1" parent="1">
          <mxGeometry x="380" y="160" width="60" height="30" as="geometry" />
        </mxCell>
        <mxCell id="7rwOD0vgzpQyucM3z7IF-45" value="creates" style="text;html=1;align=center;verticalAlign=middle;whiteSpace=wrap;rounded=0;" vertex="1" parent="1">
          <mxGeometry x="530" y="170" width="60" height="30" as="geometry" />
        </mxCell>
        <mxCell id="7rwOD0vgzpQyucM3z7IF-46" value="creates" style="text;html=1;align=center;verticalAlign=middle;whiteSpace=wrap;rounded=0;" vertex="1" parent="1">
          <mxGeometry x="660" y="170" width="60" height="30" as="geometry" />
        </mxCell>
        <mxCell id="7rwOD0vgzpQyucM3z7IF-47" value="creates" style="text;html=1;align=center;verticalAlign=middle;whiteSpace=wrap;rounded=0;" vertex="1" parent="1">
          <mxGeometry x="770" y="160" width="60" height="30" as="geometry" />
        </mxCell>
        <mxCell id="7rwOD0vgzpQyucM3z7IF-48" value="creates" style="text;html=1;align=center;verticalAlign=middle;whiteSpace=wrap;rounded=0;" vertex="1" parent="1">
          <mxGeometry x="870" y="110" width="60" height="30" as="geometry" />
        </mxCell>
        <mxCell id="7rwOD0vgzpQyucM3z7IF-51" value="1" style="text;html=1;align=center;verticalAlign=middle;whiteSpace=wrap;rounded=0;" vertex="1" parent="1">
          <mxGeometry x="450" y="100" width="60" height="30" as="geometry" />
        </mxCell>
        <mxCell id="7rwOD0vgzpQyucM3z7IF-53" value="1" style="text;html=1;align=center;verticalAlign=middle;whiteSpace=wrap;rounded=0;" vertex="1" parent="1">
          <mxGeometry x="450" y="130" width="60" height="30" as="geometry" />
        </mxCell>
        <mxCell id="7rwOD0vgzpQyucM3z7IF-54" value="1" style="text;html=1;align=center;verticalAlign=middle;whiteSpace=wrap;rounded=0;" vertex="1" parent="1">
          <mxGeometry x="570" y="150" width="60" height="30" as="geometry" />
        </mxCell>
        <mxCell id="7rwOD0vgzpQyucM3z7IF-55" value="1" style="text;html=1;align=center;verticalAlign=middle;whiteSpace=wrap;rounded=0;" vertex="1" parent="1">
          <mxGeometry x="620" y="150" width="60" height="30" as="geometry" />
        </mxCell>
        <mxCell id="7rwOD0vgzpQyucM3z7IF-56" value="1" style="text;html=1;align=center;verticalAlign=middle;whiteSpace=wrap;rounded=0;" vertex="1" parent="1">
          <mxGeometry x="700" y="120" width="60" height="30" as="geometry" />
        </mxCell>
        <mxCell id="7rwOD0vgzpQyucM3z7IF-57" value="1" style="text;html=1;align=center;verticalAlign=middle;whiteSpace=wrap;rounded=0;" vertex="1" parent="1">
          <mxGeometry x="710" y="90" width="60" height="30" as="geometry" />
        </mxCell>
        <mxCell id="7rwOD0vgzpQyucM3z7IF-59" value="TasksManagement " style="swimlane;fontStyle=1;align=center;verticalAlign=top;childLayout=stackLayout;horizontal=1;startSize=26;horizontalStack=0;resizeParent=1;resizeParentMax=0;resizeLast=0;collapsible=1;marginBottom=0;whiteSpace=wrap;html=1;" vertex="1" parent="1">
          <mxGeometry x="-340" y="20" width="300" height="270" as="geometry" />
        </mxCell>
        <mxCell id="7rwOD0vgzpQyucM3z7IF-60" value="- employees: ObservableList&lt;Employee&gt; {transient}&#xa;  - unassignedTasks: ObservableList&lt;Task&gt; {transient}&#xa;  - employeesData: List&lt;Employee&gt;&#xa;  - unassignedTasksData: List&lt;Task&gt;" style="text;strokeColor=none;fillColor=none;align=left;verticalAlign=top;spacingLeft=4;spacingRight=4;overflow=hidden;rotatable=0;points=[[0,0.5],[1,0.5]];portConstraint=eastwest;whiteSpace=wrap;html=1;" vertex="1" parent="7rwOD0vgzpQyucM3z7IF-59">
          <mxGeometry y="26" width="300" height="74" as="geometry" />
        </mxCell>
        <mxCell id="7rwOD0vgzpQyucM3z7IF-61" value="" style="line;strokeWidth=1;fillColor=none;align=left;verticalAlign=middle;spacingTop=-1;spacingLeft=3;spacingRight=3;rotatable=0;labelPosition=right;points=[];portConstraint=eastwest;strokeColor=inherit;" vertex="1" parent="7rwOD0vgzpQyucM3z7IF-59">
          <mxGeometry y="100" width="300" height="8" as="geometry" />
        </mxCell>
        <mxCell id="7rwOD0vgzpQyucM3z7IF-62" value="&amp;nbsp;+ addEmployee(employee: Employee): void&lt;br&gt;&amp;nbsp; + getEmployees(): ObservableList&amp;lt;Employee&amp;gt;&lt;br&gt;&amp;nbsp; + addUnassignedTask(task: Task): void&lt;br&gt;&amp;nbsp; + removeUnassignedTask(task: Task): void&lt;br&gt;&amp;nbsp; + assignTaskToEmployee(employee: Employee, task: Task): void&lt;br&gt;&amp;nbsp; + calculateEmployeeWorkDuration(employee: Employee): double&lt;br&gt;&amp;nbsp; + modifyTaskStatus(employee: Employee, task: Task, newStatus: String): void" style="text;strokeColor=none;fillColor=none;align=left;verticalAlign=top;spacingLeft=4;spacingRight=4;overflow=hidden;rotatable=0;points=[[0,0.5],[1,0.5]];portConstraint=eastwest;whiteSpace=wrap;html=1;" vertex="1" parent="7rwOD0vgzpQyucM3z7IF-59">
          <mxGeometry y="108" width="300" height="162" as="geometry" />
        </mxCell>
        <mxCell id="7rwOD0vgzpQyucM3z7IF-68" value="" style="endArrow=classic;html=1;rounded=0;entryX=0.996;entryY=0.243;entryDx=0;entryDy=0;entryPerimeter=0;exitX=-0.003;exitY=0.313;exitDx=0;exitDy=0;exitPerimeter=0;" edge="1" parent="1">
          <mxGeometry width="50" height="50" relative="1" as="geometry">
            <mxPoint x="510.5699999999999" y="72.90200000000004" as="sourcePoint" />
            <mxPoint x="-39.999999999999815" y="73.98199999999997" as="targetPoint" />
          </mxGeometry>
        </mxCell>
        <mxCell id="7rwOD0vgzpQyucM3z7IF-69" value="1" style="text;html=1;align=center;verticalAlign=middle;whiteSpace=wrap;rounded=0;" vertex="1" parent="1">
          <mxGeometry x="330" y="150" width="60" height="30" as="geometry" />
        </mxCell>
        <mxCell id="7rwOD0vgzpQyucM3z7IF-70" value="1" style="text;html=1;align=center;verticalAlign=middle;whiteSpace=wrap;rounded=0;" vertex="1" parent="1">
          <mxGeometry x="-30" y="30" width="60" height="30" as="geometry" />
        </mxCell>
        <mxCell id="7rwOD0vgzpQyucM3z7IF-71" value="1" style="text;html=1;align=center;verticalAlign=middle;whiteSpace=wrap;rounded=0;" vertex="1" parent="1">
          <mxGeometry x="450" y="30" width="60" height="30" as="geometry" />
        </mxCell>
        <mxCell id="7rwOD0vgzpQyucM3z7IF-72" value="uses" style="text;html=1;align=center;verticalAlign=middle;whiteSpace=wrap;rounded=0;" vertex="1" parent="1">
          <mxGeometry x="190" y="50" width="60" height="30" as="geometry" />
        </mxCell>
        <mxCell id="7rwOD0vgzpQyucM3z7IF-73" value="DataPersistence " style="swimlane;fontStyle=1;align=center;verticalAlign=top;childLayout=stackLayout;horizontal=1;startSize=26;horizontalStack=0;resizeParent=1;resizeParentMax=0;resizeLast=0;collapsible=1;marginBottom=0;whiteSpace=wrap;html=1;" vertex="1" parent="1">
          <mxGeometry x="-40" y="-200" width="160" height="104" as="geometry" />
        </mxCell>
        <mxCell id="7rwOD0vgzpQyucM3z7IF-75" value="" style="line;strokeWidth=1;fillColor=none;align=left;verticalAlign=middle;spacingTop=-1;spacingLeft=3;spacingRight=3;rotatable=0;labelPosition=right;points=[];portConstraint=eastwest;strokeColor=inherit;" vertex="1" parent="7rwOD0vgzpQyucM3z7IF-73">
          <mxGeometry y="26" width="160" height="8" as="geometry" />
        </mxCell>
        <mxCell id="7rwOD0vgzpQyucM3z7IF-76" value="+ saveData(management: TasksManagement): void&lt;br&gt;&amp;nbsp; + loadData(): TasksManagement" style="text;strokeColor=none;fillColor=none;align=left;verticalAlign=top;spacingLeft=4;spacingRight=4;overflow=hidden;rotatable=0;points=[[0,0.5],[1,0.5]];portConstraint=eastwest;whiteSpace=wrap;html=1;" vertex="1" parent="7rwOD0vgzpQyucM3z7IF-73">
          <mxGeometry y="34" width="160" height="70" as="geometry" />
        </mxCell>
        <mxCell id="7rwOD0vgzpQyucM3z7IF-80" value="" style="endArrow=classic;html=1;rounded=0;entryX=0.859;entryY=-0.009;entryDx=0;entryDy=0;entryPerimeter=0;exitX=0.283;exitY=0.999;exitDx=0;exitDy=0;exitPerimeter=0;dashed=1;" edge="1" parent="1" source="7rwOD0vgzpQyucM3z7IF-76" target="7rwOD0vgzpQyucM3z7IF-59">
          <mxGeometry width="50" height="50" relative="1" as="geometry">
            <mxPoint x="330" y="10" as="sourcePoint" />
            <mxPoint x="380" y="-40" as="targetPoint" />
          </mxGeometry>
        </mxCell>
        <mxCell id="7rwOD0vgzpQyucM3z7IF-81" value="Utility " style="swimlane;fontStyle=1;align=center;verticalAlign=top;childLayout=stackLayout;horizontal=1;startSize=26;horizontalStack=0;resizeParent=1;resizeParentMax=0;resizeLast=0;collapsible=1;marginBottom=0;whiteSpace=wrap;html=1;" vertex="1" parent="1">
          <mxGeometry x="-320" y="-200" width="230" height="158" as="geometry" />
        </mxCell>
        <mxCell id="7rwOD0vgzpQyucM3z7IF-82" value="+ field: type" style="text;strokeColor=none;fillColor=none;align=left;verticalAlign=top;spacingLeft=4;spacingRight=4;overflow=hidden;rotatable=0;points=[[0,0.5],[1,0.5]];portConstraint=eastwest;whiteSpace=wrap;html=1;" vertex="1" parent="7rwOD0vgzpQyucM3z7IF-81">
          <mxGeometry y="26" width="230" height="4" as="geometry" />
        </mxCell>
        <mxCell id="7rwOD0vgzpQyucM3z7IF-83" value="" style="line;strokeWidth=1;fillColor=none;align=left;verticalAlign=middle;spacingTop=-1;spacingLeft=3;spacingRight=3;rotatable=0;labelPosition=right;points=[];portConstraint=eastwest;strokeColor=inherit;" vertex="1" parent="7rwOD0vgzpQyucM3z7IF-81">
          <mxGeometry y="30" width="230" height="8" as="geometry" />
        </mxCell>
        <mxCell id="7rwOD0vgzpQyucM3z7IF-84" value="+ getEmployeesOver40Hours(management: TasksManagement): List&amp;lt;String&amp;gt;&lt;br&gt;&amp;nbsp; + getTaskStatusStatistics(management: TasksManagement): Map&amp;lt;String, Map&amp;lt;String, Integer&amp;gt;&amp;gt;" style="text;strokeColor=none;fillColor=none;align=left;verticalAlign=top;spacingLeft=4;spacingRight=4;overflow=hidden;rotatable=0;points=[[0,0.5],[1,0.5]];portConstraint=eastwest;whiteSpace=wrap;html=1;" vertex="1" parent="7rwOD0vgzpQyucM3z7IF-81">
          <mxGeometry y="38" width="230" height="120" as="geometry" />
        </mxCell>
        <mxCell id="7rwOD0vgzpQyucM3z7IF-85" value="" style="endArrow=classic;html=1;rounded=0;entryX=0.474;entryY=-0.001;entryDx=0;entryDy=0;entryPerimeter=0;exitX=0.563;exitY=1.014;exitDx=0;exitDy=0;exitPerimeter=0;dashed=1;" edge="1" parent="1" source="7rwOD0vgzpQyucM3z7IF-84" target="7rwOD0vgzpQyucM3z7IF-59">
          <mxGeometry width="50" height="50" relative="1" as="geometry">
            <mxPoint x="15" y="-86" as="sourcePoint" />
            <mxPoint x="-72" y="28" as="targetPoint" />
          </mxGeometry>
        </mxCell>
        <mxCell id="7rwOD0vgzpQyucM3z7IF-86" value="Employee" style="swimlane;fontStyle=1;align=center;verticalAlign=top;childLayout=stackLayout;horizontal=1;startSize=26;horizontalStack=0;resizeParent=1;resizeParentMax=0;resizeLast=0;collapsible=1;marginBottom=0;whiteSpace=wrap;html=1;" vertex="1" parent="1">
          <mxGeometry x="-340" y="420" width="160" height="180" as="geometry" />
        </mxCell>
        <mxCell id="7rwOD0vgzpQyucM3z7IF-87" value="- idEmployee: int&lt;br&gt;&amp;nbsp; - name: String&lt;br&gt;&amp;nbsp; - tasks: List&amp;lt;Task&amp;gt;" style="text;strokeColor=none;fillColor=none;align=left;verticalAlign=top;spacingLeft=4;spacingRight=4;overflow=hidden;rotatable=0;points=[[0,0.5],[1,0.5]];portConstraint=eastwest;whiteSpace=wrap;html=1;" vertex="1" parent="7rwOD0vgzpQyucM3z7IF-86">
          <mxGeometry y="26" width="160" height="54" as="geometry" />
        </mxCell>
        <mxCell id="7rwOD0vgzpQyucM3z7IF-88" value="" style="line;strokeWidth=1;fillColor=none;align=left;verticalAlign=middle;spacingTop=-1;spacingLeft=3;spacingRight=3;rotatable=0;labelPosition=right;points=[];portConstraint=eastwest;strokeColor=inherit;" vertex="1" parent="7rwOD0vgzpQyucM3z7IF-86">
          <mxGeometry y="80" width="160" height="8" as="geometry" />
        </mxCell>
        <mxCell id="7rwOD0vgzpQyucM3z7IF-89" value="&amp;nbsp;+ getIdEmployee(): int&lt;br&gt;&amp;nbsp; + getName(): String&lt;br&gt;&amp;nbsp; + addTask(task: Task): void&lt;br&gt;&amp;nbsp; + getTasks(): List&amp;lt;Task&amp;gt;" style="text;strokeColor=none;fillColor=none;align=left;verticalAlign=top;spacingLeft=4;spacingRight=4;overflow=hidden;rotatable=0;points=[[0,0.5],[1,0.5]];portConstraint=eastwest;whiteSpace=wrap;html=1;" vertex="1" parent="7rwOD0vgzpQyucM3z7IF-86">
          <mxGeometry y="88" width="160" height="92" as="geometry" />
        </mxCell>
        <mxCell id="7rwOD0vgzpQyucM3z7IF-91" value="" style="endArrow=diamondThin;html=1;rounded=0;endFill=0;exitX=0.5;exitY=0;exitDx=0;exitDy=0;entryX=0.663;entryY=1.002;entryDx=0;entryDy=0;entryPerimeter=0;" edge="1" parent="1" source="7rwOD0vgzpQyucM3z7IF-86" target="7rwOD0vgzpQyucM3z7IF-62">
          <mxGeometry relative="1" as="geometry">
            <mxPoint x="-300" y="380" as="sourcePoint" />
            <mxPoint x="-200" y="300" as="targetPoint" />
          </mxGeometry>
        </mxCell>
        <mxCell id="7rwOD0vgzpQyucM3z7IF-92" value="&lt;div&gt;manages&lt;/div&gt;" style="edgeLabel;resizable=0;html=1;;align=center;verticalAlign=middle;" connectable="0" vertex="1" parent="7rwOD0vgzpQyucM3z7IF-91">
          <mxGeometry relative="1" as="geometry" />
        </mxCell>
        <mxCell id="7rwOD0vgzpQyucM3z7IF-93" value="&amp;nbsp;&amp;nbsp; *" style="edgeLabel;resizable=0;html=1;;align=left;verticalAlign=bottom;" connectable="0" vertex="1" parent="7rwOD0vgzpQyucM3z7IF-91">
          <mxGeometry x="-1" relative="1" as="geometry" />
        </mxCell>
        <mxCell id="7rwOD0vgzpQyucM3z7IF-94" value="1" style="edgeLabel;resizable=0;html=1;;align=right;verticalAlign=bottom;" connectable="0" vertex="1" parent="7rwOD0vgzpQyucM3z7IF-91">
          <mxGeometry x="1" relative="1" as="geometry" />
        </mxCell>
        <mxCell id="7rwOD0vgzpQyucM3z7IF-96" value="SubTaskDialog" style="swimlane;fontStyle=1;align=center;verticalAlign=top;childLayout=stackLayout;horizontal=1;startSize=26;horizontalStack=0;resizeParent=1;resizeParentMax=0;resizeLast=0;collapsible=1;marginBottom=0;whiteSpace=wrap;html=1;" vertex="1" parent="1">
          <mxGeometry x="-50" y="420" width="160" height="60" as="geometry" />
        </mxCell>
        <mxCell id="7rwOD0vgzpQyucM3z7IF-97" value="+ SubTaskDialog()" style="text;strokeColor=none;fillColor=none;align=left;verticalAlign=top;spacingLeft=4;spacingRight=4;overflow=hidden;rotatable=0;points=[[0,0.5],[1,0.5]];portConstraint=eastwest;whiteSpace=wrap;html=1;" vertex="1" parent="7rwOD0vgzpQyucM3z7IF-96">
          <mxGeometry y="26" width="160" height="26" as="geometry" />
        </mxCell>
        <mxCell id="7rwOD0vgzpQyucM3z7IF-98" value="" style="line;strokeWidth=1;fillColor=none;align=left;verticalAlign=middle;spacingTop=-1;spacingLeft=3;spacingRight=3;rotatable=0;labelPosition=right;points=[];portConstraint=eastwest;strokeColor=inherit;" vertex="1" parent="7rwOD0vgzpQyucM3z7IF-96">
          <mxGeometry y="52" width="160" height="8" as="geometry" />
        </mxCell>
        <mxCell id="7rwOD0vgzpQyucM3z7IF-100" value="ModifyTaskStatusDialog " style="swimlane;fontStyle=1;align=center;verticalAlign=top;childLayout=stackLayout;horizontal=1;startSize=26;horizontalStack=0;resizeParent=1;resizeParentMax=0;resizeLast=0;collapsible=1;marginBottom=0;whiteSpace=wrap;html=1;" vertex="1" parent="1">
          <mxGeometry x="170" y="420" width="220" height="68" as="geometry" />
        </mxCell>
        <mxCell id="7rwOD0vgzpQyucM3z7IF-101" value="&amp;nbsp; +ModifyTaskStatusDialog(task: Task)" style="text;strokeColor=none;fillColor=none;align=left;verticalAlign=top;spacingLeft=4;spacingRight=4;overflow=hidden;rotatable=0;points=[[0,0.5],[1,0.5]];portConstraint=eastwest;whiteSpace=wrap;html=1;" vertex="1" parent="7rwOD0vgzpQyucM3z7IF-100">
          <mxGeometry y="26" width="220" height="34" as="geometry" />
        </mxCell>
        <mxCell id="7rwOD0vgzpQyucM3z7IF-102" value="" style="line;strokeWidth=1;fillColor=none;align=left;verticalAlign=middle;spacingTop=-1;spacingLeft=3;spacingRight=3;rotatable=0;labelPosition=right;points=[];portConstraint=eastwest;strokeColor=inherit;" vertex="1" parent="7rwOD0vgzpQyucM3z7IF-100">
          <mxGeometry y="60" width="220" height="8" as="geometry" />
        </mxCell>
        <mxCell id="7rwOD0vgzpQyucM3z7IF-104" value="Task" style="swimlane;fontStyle=1;align=center;verticalAlign=top;childLayout=stackLayout;horizontal=1;startSize=26;horizontalStack=0;resizeParent=1;resizeParentMax=0;resizeLast=0;collapsible=1;marginBottom=0;whiteSpace=wrap;html=1;" vertex="1" parent="1">
          <mxGeometry x="-40" y="570" width="200" height="200" as="geometry" />
        </mxCell>
        <mxCell id="7rwOD0vgzpQyucM3z7IF-105" value="- idTask: int&lt;br&gt;&amp;nbsp; - name: String&lt;br&gt;&amp;nbsp; - status: String" style="text;strokeColor=none;fillColor=none;align=left;verticalAlign=top;spacingLeft=4;spacingRight=4;overflow=hidden;rotatable=0;points=[[0,0.5],[1,0.5]];portConstraint=eastwest;whiteSpace=wrap;html=1;" vertex="1" parent="7rwOD0vgzpQyucM3z7IF-104">
          <mxGeometry y="26" width="200" height="64" as="geometry" />
        </mxCell>
        <mxCell id="7rwOD0vgzpQyucM3z7IF-106" value="" style="line;strokeWidth=1;fillColor=none;align=left;verticalAlign=middle;spacingTop=-1;spacingLeft=3;spacingRight=3;rotatable=0;labelPosition=right;points=[];portConstraint=eastwest;strokeColor=inherit;" vertex="1" parent="7rwOD0vgzpQyucM3z7IF-104">
          <mxGeometry y="90" width="200" height="8" as="geometry" />
        </mxCell>
        <mxCell id="7rwOD0vgzpQyucM3z7IF-107" value="+ getIdTask(): int&lt;br&gt;&amp;nbsp; + getName(): String&lt;br&gt;&amp;nbsp; + getStatus(): String&lt;br&gt;&amp;nbsp; + setStatus(status: String): void&lt;br&gt;&amp;nbsp; + estimateDuration(): double &amp;lt;&amp;lt;abstract&amp;gt;&amp;gt;" style="text;strokeColor=none;fillColor=none;align=left;verticalAlign=top;spacingLeft=4;spacingRight=4;overflow=hidden;rotatable=0;points=[[0,0.5],[1,0.5]];portConstraint=eastwest;whiteSpace=wrap;html=1;" vertex="1" parent="7rwOD0vgzpQyucM3z7IF-104">
          <mxGeometry y="98" width="200" height="102" as="geometry" />
        </mxCell>
        <mxCell id="7rwOD0vgzpQyucM3z7IF-108" value="" style="endArrow=classic;html=1;rounded=0;entryX=0.347;entryY=-0.017;entryDx=0;entryDy=0;entryPerimeter=0;dashed=1;" edge="1" parent="1" target="7rwOD0vgzpQyucM3z7IF-104">
          <mxGeometry relative="1" as="geometry">
            <mxPoint x="10" y="490" as="sourcePoint" />
            <mxPoint x="-50" y="490" as="targetPoint" />
          </mxGeometry>
        </mxCell>
        <mxCell id="7rwOD0vgzpQyucM3z7IF-109" value="creates" style="edgeLabel;resizable=0;html=1;;align=center;verticalAlign=middle;" connectable="0" vertex="1" parent="7rwOD0vgzpQyucM3z7IF-108">
          <mxGeometry relative="1" as="geometry" />
        </mxCell>
        <mxCell id="7rwOD0vgzpQyucM3z7IF-110" value="" style="endArrow=classic;html=1;rounded=0;entryX=0.75;entryY=0;entryDx=0;entryDy=0;dashed=1;" edge="1" parent="1" target="7rwOD0vgzpQyucM3z7IF-104">
          <mxGeometry relative="1" as="geometry">
            <mxPoint x="231" y="488" as="sourcePoint" />
            <mxPoint x="250" y="564" as="targetPoint" />
          </mxGeometry>
        </mxCell>
        <mxCell id="7rwOD0vgzpQyucM3z7IF-111" value="modifies" style="edgeLabel;resizable=0;html=1;;align=center;verticalAlign=middle;" connectable="0" vertex="1" parent="7rwOD0vgzpQyucM3z7IF-110">
          <mxGeometry relative="1" as="geometry" />
        </mxCell>
        <mxCell id="7rwOD0vgzpQyucM3z7IF-115" value="has" style="endArrow=classic;html=1;rounded=0;entryX=0.05;entryY=0;entryDx=0;entryDy=0;entryPerimeter=0;" edge="1" parent="1" target="7rwOD0vgzpQyucM3z7IF-104">
          <mxGeometry relative="1" as="geometry">
            <mxPoint x="-180" y="490" as="sourcePoint" />
            <mxPoint x="-20" y="490" as="targetPoint" />
            <Array as="points" />
          </mxGeometry>
        </mxCell>
        <mxCell id="7rwOD0vgzpQyucM3z7IF-116" value="has" style="edgeLabel;resizable=0;html=1;;align=center;verticalAlign=middle;" connectable="0" vertex="1" parent="7rwOD0vgzpQyucM3z7IF-115">
          <mxGeometry relative="1" as="geometry" />
        </mxCell>
        <mxCell id="7rwOD0vgzpQyucM3z7IF-117" value="1" style="edgeLabel;resizable=0;html=1;;align=left;verticalAlign=bottom;" connectable="0" vertex="1" parent="7rwOD0vgzpQyucM3z7IF-115">
          <mxGeometry x="-1" relative="1" as="geometry" />
        </mxCell>
        <mxCell id="7rwOD0vgzpQyucM3z7IF-118" value="*" style="edgeLabel;resizable=0;html=1;;align=right;verticalAlign=bottom;" connectable="0" vertex="1" parent="7rwOD0vgzpQyucM3z7IF-115">
          <mxGeometry x="1" relative="1" as="geometry" />
        </mxCell>
        <mxCell id="7rwOD0vgzpQyucM3z7IF-119" value="ComplexTask " style="swimlane;fontStyle=1;align=center;verticalAlign=top;childLayout=stackLayout;horizontal=1;startSize=26;horizontalStack=0;resizeParent=1;resizeParentMax=0;resizeLast=0;collapsible=1;marginBottom=0;whiteSpace=wrap;html=1;" vertex="1" parent="1">
          <mxGeometry x="-340" y="870" width="210" height="130" as="geometry" />
        </mxCell>
        <mxCell id="7rwOD0vgzpQyucM3z7IF-120" value="- subTasks: List&amp;lt;Task&amp;gt;" style="text;strokeColor=none;fillColor=none;align=left;verticalAlign=top;spacingLeft=4;spacingRight=4;overflow=hidden;rotatable=0;points=[[0,0.5],[1,0.5]];portConstraint=eastwest;whiteSpace=wrap;html=1;" vertex="1" parent="7rwOD0vgzpQyucM3z7IF-119">
          <mxGeometry y="26" width="210" height="26" as="geometry" />
        </mxCell>
        <mxCell id="7rwOD0vgzpQyucM3z7IF-121" value="" style="line;strokeWidth=1;fillColor=none;align=left;verticalAlign=middle;spacingTop=-1;spacingLeft=3;spacingRight=3;rotatable=0;labelPosition=right;points=[];portConstraint=eastwest;strokeColor=inherit;" vertex="1" parent="7rwOD0vgzpQyucM3z7IF-119">
          <mxGeometry y="52" width="210" height="8" as="geometry" />
        </mxCell>
        <mxCell id="7rwOD0vgzpQyucM3z7IF-122" value="&amp;nbsp; + addSubTask(task: Task): void&lt;br&gt;&amp;nbsp; + removeSubTask(task: Task): void&lt;br&gt;&amp;nbsp; + getSubTasks(): List&amp;lt;Task&amp;gt;&lt;br&gt;&amp;nbsp; + estimateDuration(): double" style="text;strokeColor=none;fillColor=none;align=left;verticalAlign=top;spacingLeft=4;spacingRight=4;overflow=hidden;rotatable=0;points=[[0,0.5],[1,0.5]];portConstraint=eastwest;whiteSpace=wrap;html=1;" vertex="1" parent="7rwOD0vgzpQyucM3z7IF-119">
          <mxGeometry y="60" width="210" height="70" as="geometry" />
        </mxCell>
        <mxCell id="7rwOD0vgzpQyucM3z7IF-127" value="SimpleTask" style="swimlane;fontStyle=1;align=center;verticalAlign=top;childLayout=stackLayout;horizontal=1;startSize=26;horizontalStack=0;resizeParent=1;resizeParentMax=0;resizeLast=0;collapsible=1;marginBottom=0;whiteSpace=wrap;html=1;" vertex="1" parent="1">
          <mxGeometry x="-40" y="860" width="200" height="120" as="geometry" />
        </mxCell>
        <mxCell id="7rwOD0vgzpQyucM3z7IF-128" value="- startHour: double&lt;br&gt;&amp;nbsp; - endHour: double" style="text;strokeColor=none;fillColor=none;align=left;verticalAlign=top;spacingLeft=4;spacingRight=4;overflow=hidden;rotatable=0;points=[[0,0.5],[1,0.5]];portConstraint=eastwest;whiteSpace=wrap;html=1;" vertex="1" parent="7rwOD0vgzpQyucM3z7IF-127">
          <mxGeometry y="26" width="200" height="54" as="geometry" />
        </mxCell>
        <mxCell id="7rwOD0vgzpQyucM3z7IF-129" value="" style="line;strokeWidth=1;fillColor=none;align=left;verticalAlign=middle;spacingTop=-1;spacingLeft=3;spacingRight=3;rotatable=0;labelPosition=right;points=[];portConstraint=eastwest;strokeColor=inherit;" vertex="1" parent="7rwOD0vgzpQyucM3z7IF-127">
          <mxGeometry y="80" width="200" height="8" as="geometry" />
        </mxCell>
        <mxCell id="7rwOD0vgzpQyucM3z7IF-130" value="&amp;nbsp; + estimateDuration(): double" style="text;strokeColor=none;fillColor=none;align=left;verticalAlign=top;spacingLeft=4;spacingRight=4;overflow=hidden;rotatable=0;points=[[0,0.5],[1,0.5]];portConstraint=eastwest;whiteSpace=wrap;html=1;" vertex="1" parent="7rwOD0vgzpQyucM3z7IF-127">
          <mxGeometry y="88" width="200" height="32" as="geometry" />
        </mxCell>
        <mxCell id="7rwOD0vgzpQyucM3z7IF-131" value="" style="endArrow=classic;html=1;rounded=0;entryX=0.5;entryY=0;entryDx=0;entryDy=0;exitX=0.533;exitY=0.997;exitDx=0;exitDy=0;exitPerimeter=0;dashed=1;" edge="1" parent="1" source="7rwOD0vgzpQyucM3z7IF-132" target="7rwOD0vgzpQyucM3z7IF-119">
          <mxGeometry width="50" height="50" relative="1" as="geometry">
            <mxPoint x="-130" y="670" as="sourcePoint" />
            <mxPoint x="-80" y="620" as="targetPoint" />
          </mxGeometry>
        </mxCell>
        <mxCell id="7rwOD0vgzpQyucM3z7IF-133" value="" style="endArrow=classic;html=1;rounded=0;entryX=0.5;entryY=0;entryDx=0;entryDy=0;exitX=0.533;exitY=0.997;exitDx=0;exitDy=0;exitPerimeter=0;dashed=1;" edge="1" parent="1" source="7rwOD0vgzpQyucM3z7IF-89" target="7rwOD0vgzpQyucM3z7IF-132">
          <mxGeometry width="50" height="50" relative="1" as="geometry">
            <mxPoint x="-255" y="600" as="sourcePoint" />
            <mxPoint x="-235" y="870" as="targetPoint" />
          </mxGeometry>
        </mxCell>
        <mxCell id="7rwOD0vgzpQyucM3z7IF-132" value="builds" style="text;html=1;align=center;verticalAlign=middle;resizable=0;points=[];autosize=1;strokeColor=none;fillColor=none;" vertex="1" parent="1">
          <mxGeometry x="-270" y="720" width="50" height="30" as="geometry" />
        </mxCell>
        <mxCell id="7rwOD0vgzpQyucM3z7IF-138" value="" style="endArrow=block;html=1;rounded=0;entryX=0;entryY=0.93;entryDx=0;entryDy=0;entryPerimeter=0;endFill=0;" edge="1" parent="1" target="7rwOD0vgzpQyucM3z7IF-107">
          <mxGeometry width="50" height="50" relative="1" as="geometry">
            <mxPoint x="-150" y="870" as="sourcePoint" />
            <mxPoint x="-100" y="820" as="targetPoint" />
          </mxGeometry>
        </mxCell>
        <mxCell id="7rwOD0vgzpQyucM3z7IF-140" value="" style="endArrow=block;html=1;rounded=0;entryX=0;entryY=0.93;entryDx=0;entryDy=0;entryPerimeter=0;endFill=0;exitX=0.5;exitY=0;exitDx=0;exitDy=0;" edge="1" parent="1" source="7rwOD0vgzpQyucM3z7IF-127">
          <mxGeometry width="50" height="50" relative="1" as="geometry">
            <mxPoint x="-60" y="877" as="sourcePoint" />
            <mxPoint x="50" y="770" as="targetPoint" />
          </mxGeometry>
        </mxCell>
        <mxCell id="7rwOD0vgzpQyucM3z7IF-142" value="" style="endArrow=diamondThin;html=1;rounded=0;endFill=0;entryX=0.831;entryY=1.021;entryDx=0;entryDy=0;entryPerimeter=0;exitX=0.131;exitY=-0.02;exitDx=0;exitDy=0;exitPerimeter=0;" edge="1" parent="1" source="7rwOD0vgzpQyucM3z7IF-104" target="7rwOD0vgzpQyucM3z7IF-62">
          <mxGeometry relative="1" as="geometry">
            <mxPoint x="-80" y="510" as="sourcePoint" />
            <mxPoint x="400" y="590" as="targetPoint" />
            <Array as="points">
              <mxPoint x="-110" y="420" />
            </Array>
          </mxGeometry>
        </mxCell>
        <mxCell id="7rwOD0vgzpQyucM3z7IF-143" value="manages" style="edgeLabel;resizable=0;html=1;;align=center;verticalAlign=middle;" connectable="0" vertex="1" parent="7rwOD0vgzpQyucM3z7IF-142">
          <mxGeometry relative="1" as="geometry" />
        </mxCell>
        <mxCell id="7rwOD0vgzpQyucM3z7IF-144" value="*" style="edgeLabel;resizable=0;html=1;;align=left;verticalAlign=bottom;" connectable="0" vertex="1" parent="7rwOD0vgzpQyucM3z7IF-142">
          <mxGeometry x="-1" relative="1" as="geometry" />
        </mxCell>
        <mxCell id="7rwOD0vgzpQyucM3z7IF-145" value="1" style="edgeLabel;resizable=0;html=1;;align=right;verticalAlign=bottom;" connectable="0" vertex="1" parent="7rwOD0vgzpQyucM3z7IF-142">
          <mxGeometry x="1" relative="1" as="geometry" />
        </mxCell>
      </root>
    </mxGraphModel>
  </diagram>
</mxfile>
